<svg xmlns="http://www.w3.org/2000/svg" width="26.085" height="26.087" viewBox="0 0 26.085 26.087">
  <path id="Path_12" data-name="Path 12" d="M228.391,13.237c0-2.662-.014-5.324,0-7.986A5.056,5.056,0,0,1,233.34.274q8.087-.027,16.175,0a5.047,5.047,0,0,1,4.942,4.91q.028,8.121,0,16.242a5.048,5.048,0,0,1-4.875,4.908q-8.155.029-16.31,0a5.057,5.057,0,0,1-4.876-4.908c-.02-2.729,0-5.459-.006-8.189M239.4,17.512v2.232c0,2.1,0,2.077,2.1,2.1.693.007.889-.227.879-.9-.034-2.254-.014-4.508-.012-6.763,0-.98.038-1.012,1.04-1.016.451,0,.9-.01,1.352,0,.386.008.575-.146.593-.553.027-.629.073-1.259.153-1.884.05-.4-.089-.536-.469-.53-.654.01-1.307,0-1.961,0-.223,0-.507.025-.6-.214a2.358,2.358,0,0,1-.014-1.59,1,1,0,0,1,1.028-.63c.518-.01,1.037-.017,1.555-.01.4.006.577-.171.57-.569-.009-.586-.015-1.173,0-1.758.015-.462-.179-.648-.641-.643a15.641,15.641,0,0,0-3.36.241,2.5,2.5,0,0,0-2.007,1.858,8.235,8.235,0,0,0-.2,2.549c.009.539-.195.765-.752.778-1.42.032-1.419.05-1.419,1.473v.135c0,1.52-.082,1.364,1.345,1.343.618-.009.842.232.828.84-.028,1.172-.008,2.344-.007,3.516" transform="translate(-228.385 -0.261)" fill="#fff"/>
</svg>
