<svg id="Group_17" data-name="Group 17" xmlns="http://www.w3.org/2000/svg" xmlns:xlink="http://www.w3.org/1999/xlink" width="293.594" height="165.827" viewBox="0 0 293.594 165.827">
  <defs>
    <clipPath id="clip-path">
      <rect id="Rectangle_9" data-name="Rectangle 9" width="293.594" height="165.827" fill="#fff"/>
    </clipPath>
  </defs>
  <g id="Group_16" data-name="Group 16" clip-path="url(#clip-path)">
    <path id="Path_4" data-name="Path 4" d="M0,173.727H13.434v15.236a38.265,38.265,0,0,0,2.939-2.947q1.47-1.634,2.939-3.542t2.923-4.092q1.455-2.182,2.862-4.656H38.715q-2.9,5.862-5.9,10.671a74.516,74.516,0,0,1-5.869,8.259q3.424,5.71,6.556,11.908t5.824,12.55H24.457q-.981-2.077-1.915-4.031t-1.93-3.878q-1-1.924-2.053-3.863t-2.251-3.984q-.765.549-1.467,1.023t-1.406.9v13.832H0Z" transform="translate(0 -52.051)" fill="#fff"/>
    <path id="Path_5" data-name="Path 5" d="M95.89,173.727q4,10.718,7.15,21.693a202.873,202.873,0,0,1,4.981,21.695H94.188q-.245-1.649-.5-3.313t-.566-3.313H81.428q-.306,1.71-.566,3.343t-.5,3.283H66.923a200.58,200.58,0,0,1,4.988-21.695q3.157-10.975,7.154-21.693Zm-5.006,26.319q-.766-3.206-1.683-6.412t-1.9-6.35q-1.04,3.145-1.958,6.35t-1.683,6.412Z" transform="translate(-20.051 -52.051)" fill="#fff"/>
    <path id="Path_6" data-name="Path 6" d="M140.042,203.475a21.447,21.447,0,0,0,5.175,2.412,17.444,17.444,0,0,0,5.145.824,10.021,10.021,0,0,0,1.786-.137,4.3,4.3,0,0,0,1.237-.4,1.635,1.635,0,0,0,.7-.656,1.9,1.9,0,0,0,.214-.916,2,2,0,0,0-.763-1.527,9.562,9.562,0,0,0-2-1.3q-1.237-.626-2.839-1.282t-3.252-1.5a28.873,28.873,0,0,1-3.251-1.939,13.759,13.759,0,0,1-2.84-2.595,12.335,12.335,0,0,1-2-3.5,12.913,12.913,0,0,1-.763-4.625,13.645,13.645,0,0,1,1.145-5.679,12,12,0,0,1,3.282-4.32,15.052,15.052,0,0,1,5.175-2.748,22.661,22.661,0,0,1,6.855-.962,26.546,26.546,0,0,1,6.641.763,22.878,22.878,0,0,1,5.541,2.229l-2.864,10.381a27.761,27.761,0,0,0-4.419-1.847,14.993,14.993,0,0,0-4.571-.717,7.434,7.434,0,0,0-1.417.122,3.424,3.424,0,0,0-1.051.366,1.811,1.811,0,0,0-.655.611,1.579,1.579,0,0,0-.228.854,1.816,1.816,0,0,0,.761,1.42,9.992,9.992,0,0,0,2,1.221q1.234.6,2.819,1.237t3.246,1.465a25.887,25.887,0,0,1,3.246,1.924,13.529,13.529,0,0,1,2.819,2.626,12.785,12.785,0,0,1,2,3.542,13.267,13.267,0,0,1,.762,4.7,12.748,12.748,0,0,1-4.748,10.168,16.278,16.278,0,0,1-5.373,2.839,22.381,22.381,0,0,1-6.886,1.008,26.836,26.836,0,0,1-7.358-.916,21.588,21.588,0,0,1-5.954-2.717Z" transform="translate(-40.925 -51.724)" fill="#fff"/>
    <path id="Path_7" data-name="Path 7" d="M220.756,173.727q4,10.718,7.15,21.693a202.7,202.7,0,0,1,4.981,21.695H219.055q-.245-1.649-.506-3.313t-.566-3.313H206.294q-.306,1.71-.566,3.343t-.5,3.283H191.789a200.581,200.581,0,0,1,4.988-21.695q3.157-10.975,7.154-21.693Zm-5.006,26.319q-.766-3.206-1.683-6.412t-1.9-6.35q-1.04,3.145-1.958,6.35t-1.683,6.412Z" transform="translate(-57.462 -52.051)" fill="#fff"/>
    <path id="Path_8" data-name="Path 8" d="M318.409,173.727q.947,5.923,1.619,11.511t1.1,10.962q.429,5.374.657,10.579t.352,10.336h-13.5q-.123-3.908-.277-7.817t-.354-7.74q-.2-3.831-.477-7.526t-.647-7.175l-6.961,30.259h-14.2L278.8,186.856q-.363,3.482-.635,7.175t-.485,7.526q-.212,3.833-.348,7.74t-.257,7.817H263.942q.122-5.13.351-10.336t.672-10.579q.441-5.374,1.1-10.962t1.632-11.511h18.98l6.5,28.243,6.442-28.243Z" transform="translate(-79.08 -52.051)" fill="#fff"/>
    <path id="Path_9" data-name="Path 9" d="M389.476,173.727q4,10.718,7.15,21.693a202.711,202.711,0,0,1,4.981,21.695H387.775q-.245-1.649-.5-3.313t-.566-3.313h-11.69q-.306,1.71-.567,3.343t-.505,3.283H360.509A200.761,200.761,0,0,1,365.5,195.42q3.157-10.975,7.154-21.693Zm-5.006,26.319q-.765-3.206-1.682-6.412t-1.9-6.35q-1.04,3.145-1.958,6.35t-1.683,6.412Z" transform="translate(-108.013 -52.051)" fill="#fff"/>
    <path id="Path_10" data-name="Path 10" d="M186.681,92.6l-1.154-.392c-12.916-4.385-21.108-14.319-22.111-25.961-10.271,6.184-24.451,10.141-32,3.8l-1.474-1.238.212-1.913A32.173,32.173,0,0,1,144.666,43c-9.605-5.065-12.507-10.514-13.235-12.31a10.815,10.815,0,0,1,.191-8.914l.522-1.1,1.084-.558c13.049-6.7,26.757-5,35.808,3.737A52.534,52.534,0,0,1,173.793,12C177.829,4.831,182.771.748,188.086.2L190,0l1.227,1.482c9.911,11.974,8.385,24.3,5.728,32.036a56.369,56.369,0,0,1,12.251,1.761c6.668,1.8,10.617,4.6,11.739,8.325l.463,1.537-.835,1.371c-6.761,11.1-17.4,16.92-28.446,16.068,4.26,10.442,4.159,18.686,2.474,23.013a10.88,10.88,0,0,1-6.766,6.614ZM172.739,49.735,170.89,59.7c-2.036,10.977,4.065,20.739,15.612,25.206a4.026,4.026,0,0,0,1.4-1.927c1.85-4.749-.385-14.717-5.312-23.7l-4.564-8.319,8.931,3.2c9.586,3.44,19.653-.263,26.192-9.447a17.332,17.332,0,0,0-5.817-2.5,52.18,52.18,0,0,0-15.637-1.488l-6.279.332,2.9-5.581c2.393-4.608,6.832-16.19-1.25-27.623-5.482,2.554-11.294,13.835-12.386,24.809l-1.1,11.107-5.588-9.663c-6.119-10.581-18.127-13.791-30.192-8.223a3.858,3.858,0,0,0,.3,2.091c1.566,3.859,7.909,8.34,16.161,11.414l8.91,3.321-8.877,3.407c-5.375,2.063-14.387,7.261-16.657,19.317,5.893,2.234,18.915-1.916,27.389-9.135Z" transform="translate(-38.931)" fill="#fff"/>
  </g>
</svg>
