<svg xmlns="http://www.w3.org/2000/svg" width="51.554" height="52.19" viewBox="0 0 51.554 52.19">
  <path id="Path_11" data-name="Path 11" d="M161.919,52.19l-.65-.221c-7.28-2.472-11.9-8.07-12.462-14.632-5.789,3.485-13.781,5.716-18.038,2.142l-.831-.7.119-1.078a18.133,18.133,0,0,1,8.182-13.468c-5.414-2.854-7.049-5.926-7.46-6.938a6.1,6.1,0,0,1,.107-5.024l.294-.621.611-.314c7.355-3.775,15.081-2.82,20.182,2.106a29.609,29.609,0,0,1,2.681-6.68c2.275-4.043,5.06-6.344,8.056-6.654L163.789,0l.692.835a18.025,18.025,0,0,1,3.229,18.056,31.77,31.77,0,0,1,6.9.993c3.758,1.015,5.984,2.594,6.616,4.692l.261.866-.471.773c-3.811,6.257-9.807,9.536-16.032,9.056,2.4,5.885,2.344,10.532,1.394,12.971a6.132,6.132,0,0,1-3.813,3.728Zm-7.858-24.158-1.042,5.618c-1.148,6.187,2.291,11.689,8.8,14.207a2.269,2.269,0,0,0,.788-1.086c1.043-2.677-.217-8.295-2.994-13.359l-2.572-4.689,5.034,1.806c5.4,1.939,11.077-.148,14.762-5.324a9.769,9.769,0,0,0-3.278-1.407,29.41,29.41,0,0,0-8.813-.838l-3.539.187L162.838,20c1.348-2.6,3.85-9.125-.7-15.569-3.09,1.439-6.365,7.8-6.981,13.983l-.623,6.26-3.149-5.446c-3.449-5.964-10.217-7.773-17.016-4.634a2.174,2.174,0,0,0,.171,1.179c.883,2.175,4.458,4.7,9.109,6.433l5.022,1.872-5,1.92a14.389,14.389,0,0,0-9.388,10.888c3.321,1.259,10.661-1.08,15.437-5.149Z" transform="translate(-129.938)" fill="#fff"/>
</svg>
