<svg xmlns="http://www.w3.org/2000/svg" width="26.075" height="26.074" viewBox="0 0 26.075 26.074">
  <g id="Group_28" data-name="Group 28" transform="translate(-139 -3854.232)">
    <path id="Path_13" data-name="Path 13" d="M26.07,13.036c0,1.962.013,3.924,0,5.886a7.041,7.041,0,0,1-7.143,7.152c-3.924-.009-7.848.011-11.771-.009A7.039,7.039,0,0,1,0,18.922C.009,15-.011,11.075.009,7.151A6.925,6.925,0,0,1,5.147.26a6.945,6.945,0,0,1,2-.261C11.075.008,15-.012,18.922.008a6.926,6.926,0,0,1,6.891,5.138,6.851,6.851,0,0,1,.261,2c-.013,1.962,0,3.924,0,5.886m-2.613-.4c-.1-1.763.207-3.976-.249-6.167A4.92,4.92,0,0,0,22.192,4.23a4.985,4.985,0,0,0-4.1-1.566c-3.868-.008-7.747-.341-11.607.208A4.4,4.4,0,0,0,4.194,3.916,4.971,4.971,0,0,0,2.666,7.964c-.012,3.89-.341,7.792.211,11.674a4.332,4.332,0,0,0,.982,2.179,4.942,4.942,0,0,0,4.089,1.589c3.868.012,7.745.323,11.608-.2a4.157,4.157,0,0,0,3.583-3.2,13.641,13.641,0,0,0,.331-2.878c-.052-1.35-.013-2.7-.013-4.494" transform="translate(139 3854.233)" fill="#fff"/>
    <path id="Path_14" data-name="Path 14" d="M45.321,52.224a6.9,6.9,0,1,1,6.853,6.9,6.887,6.887,0,0,1-6.853-6.9m10.956.025a4.054,4.054,0,1,0-4.08,4.027,3.952,3.952,0,0,0,4.08-4.027" transform="translate(99.814 3815.047)" fill="#fff"/>
    <path id="Path_15" data-name="Path 15" d="M138,33.293a1.93,1.93,0,0,1-1.838,1.8,1.807,1.807,0,0,1-1.786-1.752,1.932,1.932,0,0,1,1.768-1.872A2.082,2.082,0,0,1,138,33.293" transform="translate(22.815 3827.021)" fill="#fff"/>
  </g>
</svg>
